<svg width="13" height="13" viewBox="0 0 13 13" fill="none" xmlns="http://www.w3.org/2000/svg">
<path fill-rule="evenodd" clip-rule="evenodd" d="M5.59526 7.92783H11.1916C11.449 7.92783 11.6579 7.7189 11.6579 7.46147C11.6579 7.20405 11.449 6.99512 11.1916 6.99512H5.59526C5.33783 6.99512 5.12891 7.20405 5.12891 7.46147C5.12891 7.7189 5.33783 7.92783 5.59526 7.92783Z" fill="black"/>
<path fill-rule="evenodd" clip-rule="evenodd" d="M9.46258 5.92572L10.9983 7.46144L9.46258 8.99715C9.2807 9.17903 9.2807 9.4747 9.46258 9.65658C9.64446 9.83846 9.94013 9.83846 10.122 9.65658L11.9874 7.79115C12.1698 7.60927 12.1698 7.3136 11.9874 7.13172L10.122 5.26629C9.94013 5.08441 9.64446 5.08441 9.46258 5.26629C9.2807 5.44817 9.2807 5.74384 9.46258 5.92572Z" fill="black"/>
<path fill-rule="evenodd" clip-rule="evenodd" d="M4.66406 0.932178V2.79761C4.66406 3.57036 5.29038 4.19668 6.06313 4.19668H7.92856C8.18599 4.19668 8.39492 3.98775 8.39492 3.73032C8.39492 3.47289 8.18599 3.26396 7.92856 3.26396H6.06313C5.8057 3.26396 5.59678 3.05504 5.59678 2.79761V0.932178C5.59678 0.674748 5.38785 0.46582 5.13042 0.46582C4.87299 0.46582 4.66406 0.674748 4.66406 0.932178Z" fill="black"/>
<path fill-rule="evenodd" clip-rule="evenodd" d="M8.86079 5.59629V3.73086C8.86079 3.60727 8.81182 3.48835 8.72414 3.40114L5.45964 0.136643C5.37244 0.0489675 5.25351 0 5.12993 0C5.12993 0 2.7599 0 1.39907 0C1.02785 0 0.672021 0.147369 0.409928 0.409928C0.147369 0.672021 0 1.02785 0 1.39907V10.7262C0 11.0974 0.147369 11.4533 0.409928 11.7154C0.672021 11.9779 1.02785 12.1253 1.39907 12.1253H7.46172C7.83294 12.1253 8.18877 11.9779 8.45086 11.7154C8.71342 11.4533 8.86079 11.0974 8.86079 10.7262C8.86079 10.077 8.86079 9.32714 8.86079 9.32714C8.86079 9.06972 8.65186 8.86079 8.39443 8.86079C8.137 8.86079 7.92807 9.06972 7.92807 9.32714V10.7262C7.92807 10.8498 7.87911 10.9687 7.79143 11.0559C7.70422 11.1436 7.5853 11.1926 7.46172 11.1926H1.39907C1.27549 11.1926 1.15657 11.1436 1.06936 11.0559C0.981682 10.9687 0.932714 10.8498 0.932714 10.7262V1.39907C0.932714 1.27549 0.981682 1.15657 1.06936 1.06936C1.15657 0.981682 1.27549 0.932714 1.39907 0.932714H4.93686L7.92807 3.92393V5.59629C7.92807 5.85372 8.137 6.06264 8.39443 6.06264C8.65186 6.06264 8.86079 5.85372 8.86079 5.59629Z" fill="black"/>
</svg>
