<?xml version="1.0" encoding="utf-8"?>
<!-- Generator: Adobe Illustrator 28.0.0, SVG Export Plug-In . SVG Version: 6.00 Build 0)  -->
<svg version="1.1" id="Слой_1" xmlns="http://www.w3.org/2000/svg" xmlns:xlink="http://www.w3.org/1999/xlink" x="0px" y="0px"
	 viewBox="0 0 1000 1000" style="enable-background:new 0 0 1000 1000;" xml:space="preserve">
<style type="text/css">
	.st0{fill:#020A0A;}
</style>
<path class="st0" d="M451.5,538.8h121.3v-40.4h-13.3c0.1,3.7-0.6,7.4-2.1,10.8c-1.4,3.4-3.6,6.5-6.3,9c-2.7,2.5-5.9,4.5-9.4,5.7
	c-3.5,1.2-7.2,1.7-10.9,1.4h-18.7v-60.5h20.3v-13.4h-81v13.4h20.3v60.4h-20.4L451.5,538.8z"/>
<path class="st0" d="M631,538.9h47.2l40-74h20v-13.4h-60.4v13.4h17.4l-29.1,53.9l-29.6-53.9h21.2v-13.4h-87.6v13.4h20L631,538.9z"/>
<path class="st0" d="M210,451.4h-87.6v13.4h20l40.7,74h47.2l40-74h20.1v-13.4h-60.4v13.4h17.5l-29.2,53.9l-29.6-53.9H210L210,451.4z
	"/>
<path class="st0" d="M302.2,495.5c0,25.8,20.8,46.2,62.4,46.2s62.1-20.5,62.1-46.2c0-25.7-21.8-45.7-62.3-45.7
	C323.8,449.8,302.2,469.8,302.2,495.5z M386,495.5c-0.3,15.9-6.8,32.5-22.1,32.2c-15.3-0.3-21.3-16.6-21.1-32.9
	c0.2-16.3,8.4-31.5,22.2-31.3C378.9,463.6,386.3,478.6,386,495.5z"/>
<path class="st0" d="M749.9,495.5c0,25.8,20.7,46.2,62.3,46.2c41.6,0,62.1-20.5,62.1-46.2c0-25.7-21.8-45.7-62.4-45.7
	C771.5,449.8,749.9,469.8,749.9,495.5z M812.8,463.6c13.9,0,21.2,15.2,20.9,32.1c0,15.9-6.8,32.5-22.1,32.2
	c-15.2-0.3-21.3-16.6-21.1-32.9c0.3-16.3,8.3-31.8,22.2-31.5V463.6z"/>
<path class="st0" d="M911.2,217.2l-50.7,50.7c57.5,89,80,196.1,63.3,300.6C907,673.1,852.1,767.8,769.7,834.3
	c-82.4,66.5-186.6,100.2-292.3,94.5c-105.8-5.7-205.7-50.3-280.5-125.3S77.6,628.6,72.1,522.8C66.6,417,100.5,313,167.2,230.7
	c66.7-82.3,161.5-137,266.1-153.6c104.6-16.6,211.7,6.2,300.5,63.8l50.7-50.7C681.9,19.1,556.4-11,432.7,5.7
	C309,22.4,196.1,84.8,116,180.5C36,276.3-5.3,398.5,0.2,523.2C5.7,647.9,57.6,766,145.8,854.4C234,942.7,352,994.9,476.7,1000.6
	c124.7,5.7,247-35.4,342.9-115.2c95.9-79.9,158.5-192.7,175.5-316.4C1012,445.4,982.1,319.9,911.2,217.2z"/>
<path class="st0" d="M751.4,21.1v14c30.2,16.4,58.7,35.7,85.2,57.6L765.3,164c26.9,21.1,51.1,45.3,72.2,72.1l71.4-71.4
	c21.8,26.5,41.2,54.9,57.7,84.9h13.7V21.1H751.4z"/>
</svg>
